<svg width="221" height="22" viewBox="0 0 221 22" fill="none" xmlns="http://www.w3.org/2000/svg">
<path d="M10.0489 2.92705C10.3483 2.00574 11.6517 2.00574 11.9511 2.92705L13.2451 6.90983C13.379 7.32185 13.763 7.60081 14.1962 7.60081H18.3839C19.3527 7.60081 19.7554 8.84043 18.9717 9.40983L15.5838 11.8713C15.2333 12.126 15.0866 12.5773 15.2205 12.9894L16.5146 16.9721C16.8139 17.8934 15.7595 18.6596 14.9757 18.0902L11.5878 15.6287C11.2373 15.374 10.7627 15.374 10.4122 15.6287L7.02426 18.0902C6.24054 18.6596 5.18607 17.8934 5.48542 16.9721L6.7795 12.9894C6.91338 12.5773 6.76672 12.126 6.41623 11.8713L3.02827 9.40983C2.24456 8.84043 2.64734 7.60081 3.61606 7.60081H7.8038C8.23703 7.60081 8.62099 7.32185 8.75486 6.90983L10.0489 2.92705Z" fill="#FF8800"/>
<path d="M32.0489 2.92705C32.3483 2.00574 33.6517 2.00574 33.9511 2.92705L35.2451 6.90983C35.379 7.32185 35.763 7.60081 36.1962 7.60081H40.3839C41.3527 7.60081 41.7554 8.84043 40.9717 9.40983L37.5838 11.8713C37.2333 12.126 37.0866 12.5773 37.2205 12.9894L38.5146 16.9721C38.8139 17.8934 37.7595 18.6596 36.9757 18.0902L33.5878 15.6287C33.2373 15.374 32.7627 15.374 32.4122 15.6287L29.0243 18.0902C28.2405 18.6596 27.1861 17.8934 27.4854 16.9721L28.7795 12.9894C28.9134 12.5773 28.7667 12.126 28.4162 11.8713L25.0283 9.40983C24.2446 8.84043 24.6473 7.60081 25.6161 7.60081H29.8038C30.237 7.60081 30.621 7.32185 30.7549 6.90983L32.0489 2.92705Z" fill="#FF8800"/>
<path d="M54.0489 2.92705C54.3483 2.00574 55.6517 2.00574 55.9511 2.92705L57.2451 6.90983C57.379 7.32185 57.763 7.60081 58.1962 7.60081H62.3839C63.3527 7.60081 63.7554 8.84043 62.9717 9.40983L59.5838 11.8713C59.2333 12.126 59.0866 12.5773 59.2205 12.9894L60.5146 16.9721C60.8139 17.8934 59.7595 18.6596 58.9757 18.0902L55.5878 15.6287C55.2373 15.374 54.7627 15.374 54.4122 15.6287L51.0243 18.0902C50.2405 18.6596 49.1861 17.8934 49.4854 16.9721L50.7795 12.9894C50.9134 12.5773 50.7667 12.126 50.4162 11.8713L47.0283 9.40983C46.2446 8.84043 46.6473 7.60081 47.6161 7.60081H51.8038C52.237 7.60081 52.621 7.32185 52.7549 6.90983L54.0489 2.92705Z" fill="#FF8800"/>
<path d="M76.0489 2.92705C76.3483 2.00574 77.6517 2.00574 77.9511 2.92705L79.2451 6.90983C79.379 7.32185 79.763 7.60081 80.1962 7.60081H84.3839C85.3527 7.60081 85.7554 8.84043 84.9717 9.40983L81.5838 11.8713C81.2333 12.126 81.0866 12.5773 81.2205 12.9894L82.5146 16.9721C82.8139 17.8934 81.7595 18.6596 80.9757 18.0902L77.5878 15.6287C77.2373 15.374 76.7627 15.374 76.4122 15.6287L73.0243 18.0902C72.2405 18.6596 71.1861 17.8934 71.4854 16.9721L72.7795 12.9894C72.9134 12.5773 72.7667 12.126 72.4162 11.8713L69.0283 9.40983C68.2446 8.84043 68.6473 7.60081 69.6161 7.60081H73.8038C74.237 7.60081 74.621 7.32185 74.7549 6.90983L76.0489 2.92705Z" fill="#FF8800"/>
<path d="M98.0489 2.92705C98.3483 2.00574 99.6517 2.00574 99.9511 2.92705L101.245 6.90983C101.379 7.32185 101.763 7.60081 102.196 7.60081H106.384C107.353 7.60081 107.755 8.84043 106.972 9.40983L103.584 11.8713C103.233 12.126 103.087 12.5773 103.22 12.9894L104.515 16.9721C104.814 17.8934 103.759 18.6596 102.976 18.0902L99.5878 15.6287C99.2373 15.374 98.7627 15.374 98.4122 15.6287L95.0243 18.0902C94.2405 18.6596 93.1861 17.8934 93.4854 16.9721L94.7795 12.9894C94.9134 12.5773 94.7667 12.126 94.4162 11.8713L91.0283 9.40983C90.2446 8.84043 90.6473 7.60081 91.6161 7.60081H95.8038C96.237 7.60081 96.621 7.32185 96.7549 6.90983L98.0489 2.92705Z" fill="#D9D9D9"/>
<path d="M129.027 13.8867C127.879 13.8867 127.047 12.9258 127.047 11.4141C127.047 9.91406 127.891 8.95312 129.027 8.95312C129.859 8.95312 130.281 9.49219 130.445 9.90234H130.492V9.03516H131.207V12.4453C131.219 13.0078 131.488 13.3008 131.945 13.3008C132.73 13.3008 133.258 12.3984 133.27 11.0625C133.27 8.80078 131.629 7.27734 129.285 7.27734C126.895 7.28906 125.324 9.09375 125.312 11.4141C125.312 13.8984 126.742 15.5742 129.25 15.5625C130.012 15.5508 130.551 15.5039 131.207 15.3281V15.9727C130.633 16.125 129.965 16.2188 129.25 16.2188C126.426 16.2188 124.633 14.3555 124.633 11.4141C124.633 8.63672 126.566 6.62109 129.285 6.62109C132.062 6.62109 133.949 8.49609 133.949 11.0391C133.949 12.8438 133.07 13.9336 131.898 13.9336C131.16 13.9336 130.598 13.4883 130.551 12.8672H130.492C130.328 13.2773 129.895 13.8867 129.027 13.8867ZM129.145 13.1953C130.012 13.1953 130.504 12.457 130.504 11.4023C130.504 10.3711 130.012 9.64453 129.145 9.64453C128.277 9.64453 127.785 10.3945 127.785 11.4023C127.785 12.4336 128.289 13.1953 129.145 13.1953ZM135.438 15V8.63672H136.211V9.62109H136.281C136.539 8.95312 137.16 8.55469 137.992 8.55469C138.859 8.55469 139.434 8.98828 139.715 9.70312H139.762C140.055 9 140.723 8.55469 141.648 8.55469C142.832 8.55469 143.582 9.30469 143.582 10.7344V15H142.773V10.7461C142.773 9.76172 142.223 9.28125 141.402 9.28125C140.453 9.28125 139.914 9.92578 139.914 10.8281V15H139.105V10.6758C139.105 9.84375 138.602 9.28125 137.758 9.28125C136.891 9.28125 136.246 9.96094 136.246 10.9453V15H135.438ZM144.988 13.2188C144.988 11.9297 146.031 11.4375 147.332 11.332C147.754 11.3027 148.785 11.2441 149.09 11.2266V10.6289C149.09 9.77344 148.539 9.25781 147.543 9.25781C146.711 9.25781 146.148 9.64453 145.996 10.2188H145.164C145.293 9.21094 146.266 8.54297 147.59 8.54297C148.539 8.54297 149.887 8.95312 149.887 10.6992V15H149.09V14.0156H149.043C148.785 14.5664 148.152 15.1406 147.086 15.1406C145.926 15.1406 144.988 14.4492 144.988 13.2188ZM145.785 13.2539C145.785 14.0039 146.383 14.4258 147.203 14.4258C148.375 14.4258 149.09 13.582 149.09 12.5742V11.8945L147.449 12.0117C146.324 12.0938 145.785 12.5273 145.785 13.2539ZM151.609 15V6.51562H152.418V11.5898H152.5L155.43 8.63672H156.438L153.73 11.3672L156.602 15H155.594L153.133 11.8828L152.418 12.5508V15H151.609ZM159.918 15.1289C158.125 15.1289 157 13.793 157 11.8594C157 9.92578 158.148 8.54297 159.801 8.54297C161.184 8.54297 162.52 9.52734 162.52 11.6836V12.0586H157.797C157.832 13.4941 158.646 14.4141 159.918 14.4141C160.797 14.4141 161.312 13.957 161.535 13.5586H162.391C162.109 14.4375 161.207 15.1289 159.918 15.1289ZM157.809 11.3672H161.699C161.699 10.1719 160.926 9.26953 159.812 9.26953C158.658 9.26953 157.873 10.2188 157.809 11.3672ZM167.945 12.5391V8.63672H168.742V15H167.945V13.9453H167.887C167.594 14.5898 166.938 15.082 166 15.082C164.781 15.082 163.902 14.2617 163.902 12.75V8.63672H164.711V12.6914C164.711 13.6641 165.332 14.3086 166.234 14.3086C167.066 14.3086 167.945 13.6992 167.945 12.5391ZM170.453 17.3906V8.63672H171.227V9.82031H171.32C171.578 9.28125 172.082 8.54297 173.254 8.54297C174.824 8.54297 175.891 9.85547 175.891 11.8359C175.891 13.8164 174.824 15.1289 173.266 15.1289C172.105 15.1289 171.578 14.4023 171.32 13.8516H171.262V17.3906H170.453ZM171.25 11.8242C171.25 13.3359 171.941 14.4141 173.16 14.4141C174.402 14.4141 175.094 13.2773 175.094 11.8242C175.094 10.3828 174.414 9.26953 173.16 9.26953C171.93 9.26953 171.25 10.3242 171.25 11.8242ZM177.906 15.0586C177.555 15.0586 177.273 14.7773 177.273 14.4375C177.273 14.0859 177.555 13.8047 177.906 13.8047C178.246 13.8047 178.527 14.0859 178.527 14.4375C178.527 14.7773 178.246 15.0586 177.906 15.0586ZM181.035 11.0508V15H180.227V8.63672H181V9.64453H181.07C181.375 8.98828 182.008 8.55469 182.945 8.55469C184.234 8.55469 185.102 9.375 185.102 10.8867V15H184.305V10.9453C184.305 9.91406 183.695 9.28125 182.734 9.28125C181.75 9.28125 181.035 9.94922 181.035 11.0508ZM189.32 15.1289C187.656 15.1289 186.496 13.793 186.496 11.8477C186.496 9.89062 187.656 8.54297 189.32 8.54297C190.984 8.54297 192.133 9.89062 192.133 11.8477C192.133 13.793 190.984 15.1289 189.32 15.1289ZM189.32 14.4141C190.621 14.4141 191.336 13.2422 191.336 11.8477C191.336 10.4531 190.621 9.26953 189.32 9.26953C188.008 9.26953 187.293 10.4531 187.293 11.8477C187.293 13.2422 188.008 14.4141 189.32 14.4141ZM196.094 8.63672V9.31641H194.758V13.3008C194.758 14.1094 195.203 14.332 195.684 14.332C195.848 14.332 196.082 14.3086 196.211 14.3086V15.0586C196.082 15.0703 195.883 15.0938 195.613 15.0938C194.781 15.0938 193.949 14.5547 193.949 13.5V9.31641H193V8.63672H193.949V7.11328H194.758V8.63672H196.094ZM200.055 15.1289C198.262 15.1289 197.137 13.793 197.137 11.8594C197.137 9.92578 198.285 8.54297 199.938 8.54297C201.32 8.54297 202.656 9.52734 202.656 11.6836V12.0586H197.934C197.969 13.4941 198.783 14.4141 200.055 14.4141C200.934 14.4141 201.449 13.957 201.672 13.5586H202.527C202.246 14.4375 201.344 15.1289 200.055 15.1289ZM197.945 11.3672H201.836C201.836 10.1719 201.062 9.26953 199.949 9.26953C198.795 9.26953 198.01 10.2188 197.945 11.3672ZM206.324 11.2852H205.68L205.727 9.375L204.086 10.3711L203.77 9.80859L205.445 8.90625L203.77 7.99219L204.086 7.42969L205.727 8.42578L205.68 6.51562H206.324L206.277 8.42578L207.906 7.42969L208.234 7.99219L206.547 8.90625L208.234 9.80859L207.906 10.3711L206.277 9.375L206.324 11.2852ZM211.949 11.2852H211.305L211.352 9.375L209.711 10.3711L209.395 9.80859L211.07 8.90625L209.395 7.99219L209.711 7.42969L211.352 8.42578L211.305 6.51562H211.949L211.902 8.42578L213.531 7.42969L213.859 7.99219L212.172 8.90625L213.859 9.80859L213.531 10.3711L211.902 9.375L211.949 11.2852ZM217.574 11.2852H216.93L216.977 9.375L215.336 10.3711L215.02 9.80859L216.695 8.90625L215.02 7.99219L215.336 7.42969L216.977 8.42578L216.93 6.51562H217.574L217.527 8.42578L219.156 7.42969L219.484 7.99219L217.797 8.90625L219.484 9.80859L219.156 10.3711L217.527 9.375L217.574 11.2852Z" fill="#737373"/>
</svg>
